<?xml version="1.0" standalone="no"?>
<svg viewBox="0 0 200 200" xmlns="http://www.w3.org/2000/svg">
  <path fill="#FFD6E8" d="M6.3,-9.6C10.4,-8.6,17.4,-11.3,27.9,-10.4C38.4,-9.4,52.3,-4.7,57.5,3C62.7,10.7,59.1,21.4,52.5,29.1C46,36.8,36.3,41.5,27,39.8C17.8,38.1,8.9,30,0.4,29.3C-8.1,28.6,-16.1,35.2,-20,33.8C-23.8,32.4,-23.4,22.8,-30.2,15.9C-36.9,8.9,-50.7,4.4,-53.1,-1.4C-55.5,-7.2,-46.6,-14.5,-39.6,-21.1C-32.7,-27.7,-27.9,-33.8,-21.6,-33.6C-15.3,-33.4,-7.7,-27,-3.3,-21.3C1.1,-15.7,2.2,-10.7,6.3,-9.6Z" transform="translate(100 100)" />
</svg>
