<?xml version="1.0" standalone="no"?><svg xmlns="http://www.w3.org/2000/svg" viewBox="0 0 1440 320"><path fill="#f98686" fill-opacity="0.41" d="M0,32L7.5,48C15,64,30,96,45,117.3C60,139,75,149,90,138.7C105,128,120,96,135,80C150,64,165,64,180,106.7C195,149,210,235,225,234.7C240,235,255,149,270,106.7C285,64,300,64,315,96C330,128,345,192,360,197.3C375,203,390,149,405,106.7C420,64,435,32,450,58.7C465,85,480,171,495,181.3C510,192,525,128,540,101.3C555,75,570,85,585,101.3C600,117,615,139,630,160C645,181,660,203,675,181.3C690,160,705,96,720,80C735,64,750,96,765,144C780,192,795,256,810,240C825,224,840,128,855,85.3C870,43,885,53,900,96C915,139,930,213,945,208C960,203,975,117,990,74.7C1005,32,1020,32,1035,32C1050,32,1065,32,1080,69.3C1095,107,1110,181,1125,229.3C1140,277,1155,299,1170,261.3C1185,224,1200,128,1215,80C1230,32,1245,32,1260,53.3C1275,75,1290,117,1305,128C1320,139,1335,117,1350,112C1365,107,1380,117,1395,106.7C1410,96,1425,64,1433,48L1440,32L1440,0L1432.5,0C1425,0,1410,0,1395,0C1380,0,1365,0,1350,0C1335,0,1320,0,1305,0C1290,0,1275,0,1260,0C1245,0,1230,0,1215,0C1200,0,1185,0,1170,0C1155,0,1140,0,1125,0C1110,0,1095,0,1080,0C1065,0,1050,0,1035,0C1020,0,1005,0,990,0C975,0,960,0,945,0C930,0,915,0,900,0C885,0,870,0,855,0C840,0,825,0,810,0C795,0,780,0,765,0C750,0,735,0,720,0C705,0,690,0,675,0C660,0,645,0,630,0C615,0,600,0,585,0C570,0,555,0,540,0C525,0,510,0,495,0C480,0,465,0,450,0C435,0,420,0,405,0C390,0,375,0,360,0C345,0,330,0,315,0C300,0,285,0,270,0C255,0,240,0,225,0C210,0,195,0,180,0C165,0,150,0,135,0C120,0,105,0,90,0C75,0,60,0,45,0C30,0,15,0,8,0L0,0Z"></path></svg>