<?xml version="1.0" standalone="no"?><svg xmlns="http://www.w3.org/2000/svg" viewBox="0 0 1440 320"><path fill="#ffe48d" fill-opacity="0.5" d="M0,96L0,288L36.9,288L36.9,320L73.8,320L73.8,224L110.8,224L110.8,288L147.7,288L147.7,192L184.6,192L184.6,256L221.5,256L221.5,128L258.5,128L258.5,64L295.4,64L295.4,96L332.3,96L332.3,64L369.2,64L369.2,160L406.2,160L406.2,256L443.1,256L443.1,288L480,288L480,64L516.9,64L516.9,32L553.8,32L553.8,192L590.8,192L590.8,192L627.7,192L627.7,96L664.6,96L664.6,0L701.5,0L701.5,128L738.5,128L738.5,64L775.4,64L775.4,128L812.3,128L812.3,64L849.2,64L849.2,192L886.2,192L886.2,128L923.1,128L923.1,64L960,64L960,288L996.9,288L996.9,0L1033.8,0L1033.8,256L1070.8,256L1070.8,256L1107.7,256L1107.7,192L1144.6,192L1144.6,192L1181.5,192L1181.5,96L1218.5,96L1218.5,128L1255.4,128L1255.4,288L1292.3,288L1292.3,160L1329.2,160L1329.2,160L1366.2,160L1366.2,160L1403.1,160L1403.1,224L1440,224L1440,0L1403.1,0L1403.1,0L1366.2,0L1366.2,0L1329.2,0L1329.2,0L1292.3,0L1292.3,0L1255.4,0L1255.4,0L1218.5,0L1218.5,0L1181.5,0L1181.5,0L1144.6,0L1144.6,0L1107.7,0L1107.7,0L1070.8,0L1070.8,0L1033.8,0L1033.8,0L996.9,0L996.9,0L960,0L960,0L923.1,0L923.1,0L886.2,0L886.2,0L849.2,0L849.2,0L812.3,0L812.3,0L775.4,0L775.4,0L738.5,0L738.5,0L701.5,0L701.5,0L664.6,0L664.6,0L627.7,0L627.7,0L590.8,0L590.8,0L553.8,0L553.8,0L516.9,0L516.9,0L480,0L480,0L443.1,0L443.1,0L406.2,0L406.2,0L369.2,0L369.2,0L332.3,0L332.3,0L295.4,0L295.4,0L258.5,0L258.5,0L221.5,0L221.5,0L184.6,0L184.6,0L147.7,0L147.7,0L110.8,0L110.8,0L73.8,0L73.8,0L36.9,0L36.9,0L0,0L0,0Z"></path></svg>